<?xml version="1.0" encoding="UTF-8" standalone="no"?><!DOCTYPE svg PUBLIC "-//W3C//DTD SVG 1.1//EN" "http://www.w3.org/Graphics/SVG/1.1/DTD/svg11.dtd"><svg width="100%" height="100%" viewBox="0 0 500 500" version="1.1" xmlns="http://www.w3.org/2000/svg" xmlns:xlink="http://www.w3.org/1999/xlink" xml:space="preserve" xmlns:serif="http://www.serif.com/" style="fill-rule:evenodd;clip-rule:evenodd;stroke-linejoin:round;stroke-miterlimit:2;"><g><path d="M190.02,222.641l208.55,-104.534l101.43,198.718c-115.618,68.162 -219.202,39.131 -309.98,-94.184Z" style="fill:#8b6e36;"/><path d="M37.359,147.604l185.78,-96.132l157.836,55.25c-113.857,50.425 -228.379,64.977 -343.616,40.882Z" style="fill:#8b6e36;"/><path d="M3.722,186.934l100.394,197.165l148.003,38.294c-81.336,-144.345 -164.302,-215.314 -248.397,-235.459Z" style="fill:#8b6e36;"/><path d="M0,169.707l37.359,-22.103c104.338,18.171 214.412,18.18 343.616,-42.39l17.595,12.893l-208.55,104.534c93.336,135.576 197.323,160.085 309.98,94.184l-215.296,111.703l-32.585,-6.135c-73.44,-127.285 -155.637,-208.913 -248.397,-235.459l-3.722,-17.227Z" style="fill:#624920;"/></g></svg>