<?xml version="1.0" encoding="UTF-8" standalone="no"?><!DOCTYPE svg PUBLIC "-//W3C//DTD SVG 1.1//EN" "http://www.w3.org/Graphics/SVG/1.1/DTD/svg11.dtd"><svg width="100%" height="100%" viewBox="0 0 500 500" version="1.1" xmlns="http://www.w3.org/2000/svg" xmlns:xlink="http://www.w3.org/1999/xlink" xml:space="preserve" xmlns:serif="http://www.serif.com/" style="fill-rule:evenodd;clip-rule:evenodd;stroke-linecap:round;stroke-linejoin:round;stroke-miterlimit:1.5;"><g><path d="M120.828,427.42l32.71,-284.695l318.616,29.075l-117.27,-133.746l-314.013,-38.054l-40.871,288.101l120.828,139.319Z" style="fill:url(#_Linear1);stroke:#000;stroke-width:8.33px;"/><path d="M28.341,88.326l115.32,140.361l2.617,-22.776l-114.664,-140.658l-3.273,23.073Z" style="fill:#18355e;"/><path d="M72.384,205.911c16.857,0 25.984,16.285 20.367,36.344c-5.616,20.059 -23.862,36.344 -40.72,36.344c-16.857,0 -25.983,-16.285 -20.367,-36.344c5.617,-20.059 23.863,-36.344 40.72,-36.344Z" style="fill:#1e2b32;"/><path d="M153.538,142.725l-32.71,284.695l32.71,41.19l47.247,-281.061l298.021,30.287l-26.652,-46.036l-318.616,-29.075Z" style="fill:url(#_Linear2);"/><path d="M200.785,187.549l-47.247,281.061l318.616,31.39l26.652,-282.164l-298.021,-30.287Z" style="fill:url(#_Linear3);stroke:#000;stroke-width:8.33px;"/><path d="M236.077,261.971l205.449,16.628l30.628,40.747l-185.696,0l-21.71,125.605l-40.317,-40.503l11.646,-142.477Z" style="fill:#c9cdd5;stroke:#000;stroke-width:8.33px;"/><path d="M286.458,319.346l185.696,0l-0,137.235l-207.406,-11.63l21.71,-125.605Z" style="fill:#383334;"/><path d="M254.69,434.847l20.138,-132.558l197.326,17.057l-185.696,0l-21.71,125.605l-10.058,-10.104Z" style="fill:url(#_Linear4);"/><ellipse cx="381.91" cy="387.964" rx="47.558" ry="50.729" style="fill:#c9cdd5;"/><ellipse cx="368.451" cy="368.9" rx="8.932" ry="9.527" style="fill:#fff;"/></g><defs><linearGradient id="_Linear1" x1="0" y1="0" x2="1" y2="0" gradientUnits="userSpaceOnUse" gradientTransform="matrix(-241.394,145.625,-145.625,-241.394,249.823,83.0616)"><stop offset="0" style="stop-color:#ced5dc;stop-opacity:1"/><stop offset="1" style="stop-color:#595052;stop-opacity:1"/></linearGradient><linearGradient id="_Linear2" x1="0" y1="0" x2="1" y2="0" gradientUnits="userSpaceOnUse" gradientTransform="matrix(-249.562,-146.587,146.587,-249.562,446.713,188.761)"><stop offset="0" style="stop-color:#b13734;stop-opacity:1"/><stop offset="1" style="stop-color:#cb8c2f;stop-opacity:1"/></linearGradient><linearGradient id="_Linear3" x1="0" y1="0" x2="1" y2="0" gradientUnits="userSpaceOnUse" gradientTransform="matrix(-451.263,152.742,-152.742,-451.263,403.55,519.383)"><stop offset="0" style="stop-color:#cfcbd0;stop-opacity:1"/><stop offset="1" style="stop-color:#5a5153;stop-opacity:1"/></linearGradient><linearGradient id="_Linear4" x1="0" y1="0" x2="1" y2="0" gradientUnits="userSpaceOnUse" gradientTransform="matrix(-25.1704,49.6686,-49.6686,-25.1704,292.224,303.792)"><stop offset="0" style="stop-color:#c26f31;stop-opacity:1"/><stop offset="1" style="stop-color:#843f0b;stop-opacity:1"/></linearGradient></defs></svg>