<?xml version="1.0" encoding="UTF-8" standalone="no"?><!DOCTYPE svg PUBLIC "-//W3C//DTD SVG 1.1//EN" "http://www.w3.org/Graphics/SVG/1.1/DTD/svg11.dtd"><svg width="100%" height="100%" viewBox="0 0 500 500" version="1.1" xmlns="http://www.w3.org/2000/svg" xmlns:xlink="http://www.w3.org/1999/xlink" xml:space="preserve" xmlns:serif="http://www.serif.com/" style="fill-rule:evenodd;clip-rule:evenodd;stroke-linecap:round;stroke-linejoin:round;stroke-miterlimit:1.5;"><g><path d="M405.441,52.584l-405.441,222.616l94.559,172.216l405.441,-222.616l-94.559,-172.216Z" style="fill:#7b7b7b;stroke:#fff;stroke-width:1px;"/><path d="M403.002,62.967l-392.931,215.747l86.927,158.319l392.931,-215.747l-86.927,-158.319Z" style="fill:none;stroke:#fff;stroke-width:8.33px;"/><g><path d="M45.141,267.77l-26.463,14.397l15.07,27.699l26.463,-14.397l-15.07,-27.699Z" style="fill:#162e67;"/><path d="M18.678,282.167c17.451,-6.385 30.79,-0.435 41.533,13.302l-15.07,-27.699l-26.463,14.397Z" style="fill:#8b97b3;"/></g><g><path d="M76.179,249.504l-26.464,14.397l15.07,27.699l26.463,-14.397l-15.069,-27.699Z" style="fill:#162e67;"/><path d="M49.715,263.901c17.451,-6.385 30.79,-0.435 41.533,13.302l-15.069,-27.699l-26.464,14.397Z" style="fill:#8b97b3;"/></g><g><path d="M107.144,232.577l-26.463,14.397l15.069,27.699l26.464,-14.397l-15.07,-27.699Z" style="fill:#162e67;"/><path d="M80.681,246.974c17.451,-6.385 30.79,-0.435 41.533,13.302l-15.07,-27.699l-26.463,14.397Z" style="fill:#8b97b3;"/></g><g><path d="M137.451,215.46l-26.464,14.397l15.07,27.699l26.463,-14.397l-15.069,-27.699Z" style="fill:#162e67;"/><path d="M110.987,229.857c17.451,-6.385 30.79,-0.436 41.533,13.302l-15.069,-27.699l-26.464,14.397Z" style="fill:#8b97b3;"/></g><g><path d="M67.599,301.814l-26.464,14.398l15.07,27.698l26.463,-14.397l-15.069,-27.699Z" style="fill:#162e67;"/><path d="M41.135,316.212c17.451,-6.385 30.79,-0.436 41.533,13.301l-15.069,-27.699l-26.464,14.398Z" style="fill:#8b97b3;"/></g><g><path d="M98.636,283.548l-26.464,14.398l15.07,27.698l26.463,-14.397l-15.069,-27.699Z" style="fill:#162e67;"/><path d="M72.172,297.946c17.451,-6.385 30.79,-0.436 41.533,13.301l-15.069,-27.699l-26.464,14.398Z" style="fill:#8b97b3;"/></g><g><path d="M129.601,266.621l-26.463,14.398l15.07,27.698l26.463,-14.397l-15.07,-27.699Z" style="fill:#162e67;"/><path d="M103.138,281.019c17.451,-6.385 30.79,-0.436 41.533,13.301l-15.07,-27.699l-26.463,14.398Z" style="fill:#8b97b3;"/></g><g><path d="M159.908,249.504l-26.464,14.397l15.07,27.699l26.463,-14.397l-15.069,-27.699Z" style="fill:#162e67;"/><path d="M133.444,263.901c17.451,-6.385 30.79,-0.435 41.533,13.302l-15.069,-27.699l-26.464,14.397Z" style="fill:#8b97b3;"/></g><g><path d="M88.708,349.963l-26.463,14.398l15.07,27.698l26.463,-14.397l-15.07,-27.699Z" style="fill:#162e67;"/><path d="M62.245,364.361c17.451,-6.385 30.79,-0.436 41.533,13.301l-15.07,-27.699l-26.463,14.398Z" style="fill:#8b97b3;"/></g><g><path d="M119.745,331.697l-26.463,14.398l15.07,27.698l26.463,-14.397l-15.07,-27.699Z" style="fill:#162e67;"/><path d="M93.282,346.095c17.451,-6.385 30.79,-0.436 41.533,13.301l-15.07,-27.699l-26.463,14.398Z" style="fill:#8b97b3;"/></g><g><path d="M150.711,314.77l-26.463,14.398l15.069,27.698l26.464,-14.397l-15.07,-27.699Z" style="fill:#162e67;"/><path d="M124.248,329.168c17.45,-6.385 30.79,-0.436 41.533,13.301l-15.07,-27.699l-26.463,14.398Z" style="fill:#8b97b3;"/></g><g><path d="M181.018,297.653l-26.464,14.397l15.07,27.699l26.463,-14.397l-15.069,-27.699Z" style="fill:#162e67;"/><path d="M154.554,312.05c17.451,-6.385 30.79,-0.435 41.533,13.302l-15.069,-27.699l-26.464,14.397Z" style="fill:#8b97b3;"/></g><g><path d="M111.166,384.008l-26.464,14.397l15.07,27.699l26.463,-14.398l-15.069,-27.698Z" style="fill:#162e67;"/><path d="M84.702,398.405c17.451,-6.385 30.79,-0.436 41.533,13.301l-15.069,-27.698l-26.464,14.397Z" style="fill:#8b97b3;"/></g><g><path d="M142.203,365.742l-26.464,14.397l15.07,27.699l26.463,-14.398l-15.069,-27.698Z" style="fill:#162e67;"/><path d="M115.739,380.139c17.451,-6.385 30.79,-0.436 41.533,13.301l-15.069,-27.698l-26.464,14.397Z" style="fill:#8b97b3;"/></g><g><path d="M173.168,348.815l-26.463,14.397l15.07,27.699l26.463,-14.398l-15.07,-27.698Z" style="fill:#162e67;"/><path d="M146.705,363.212c17.451,-6.385 30.79,-0.436 41.533,13.301l-15.07,-27.698l-26.463,14.397Z" style="fill:#8b97b3;"/></g><g><path d="M203.475,331.697l-26.464,14.398l15.07,27.698l26.463,-14.397l-15.069,-27.699Z" style="fill:#162e67;"/><path d="M177.011,346.095c17.451,-6.385 30.79,-0.436 41.533,13.301l-15.069,-27.699l-26.464,14.398Z" style="fill:#8b97b3;"/></g><g><path d="M218.511,275.405l-26.463,14.398l15.069,27.698l26.463,-14.397l-15.069,-27.699Z" style="fill:#162e67;"/><path d="M192.048,289.803c17.45,-6.385 30.789,-0.436 41.532,13.301l-15.069,-27.699l-26.463,14.398Z" style="fill:#8b97b3;"/></g><g><path d="M249.548,257.14l-26.463,14.397l15.069,27.699l26.464,-14.398l-15.07,-27.698Z" style="fill:#162e67;"/><path d="M223.085,271.537c17.45,-6.385 30.789,-0.436 41.533,13.301l-15.07,-27.698l-26.463,14.397Z" style="fill:#8b97b3;"/></g><g><path d="M280.514,240.213l-26.463,14.397l15.069,27.698l26.463,-14.397l-15.069,-27.698Z" style="fill:#162e67;"/><path d="M254.051,254.61c17.45,-6.385 30.789,-0.436 41.532,13.301l-15.069,-27.698l-26.463,14.397Z" style="fill:#8b97b3;"/></g><g><path d="M310.82,223.095l-26.463,14.398l15.069,27.698l26.464,-14.397l-15.07,-27.699Z" style="fill:#162e67;"/><path d="M284.357,237.493c17.45,-6.386 30.789,-0.436 41.533,13.301l-15.07,-27.699l-26.463,14.398Z" style="fill:#8b97b3;"/></g><g><path d="M240.968,309.45l-26.463,14.397l15.069,27.699l26.464,-14.398l-15.07,-27.698Z" style="fill:#162e67;"/><path d="M214.505,323.847c17.45,-6.385 30.789,-0.436 41.533,13.301l-15.07,-27.698l-26.463,14.397Z" style="fill:#8b97b3;"/></g><g><path d="M272.005,291.184l-26.463,14.397l15.069,27.699l26.464,-14.397l-15.07,-27.699Z" style="fill:#162e67;"/><path d="M245.542,305.581c17.451,-6.385 30.79,-0.436 41.533,13.302l-15.07,-27.699l-26.463,14.397Z" style="fill:#8b97b3;"/></g><g><path d="M302.971,274.257l-26.463,14.397l15.069,27.699l26.463,-14.398l-15.069,-27.698Z" style="fill:#162e67;"/><path d="M276.508,288.654c17.45,-6.385 30.789,-0.436 41.532,13.301l-15.069,-27.698l-26.463,14.397Z" style="fill:#8b97b3;"/></g><g><path d="M333.277,257.14l-26.463,14.397l15.07,27.699l26.463,-14.398l-15.07,-27.698Z" style="fill:#162e67;"/><path d="M306.814,271.537c17.451,-6.385 30.79,-0.436 41.533,13.301l-15.07,-27.698l-26.463,14.397Z" style="fill:#8b97b3;"/></g><g><path d="M175.842,195.458l-26.463,14.397l15.07,27.699l26.463,-14.397l-15.07,-27.699Z" style="fill:#162e67;"/><path d="M149.379,209.855c17.451,-6.385 30.79,-0.436 41.533,13.302l-15.07,-27.699l-26.463,14.397Z" style="fill:#8b97b3;"/></g><g><path d="M206.879,177.192l-26.463,14.397l15.07,27.699l26.463,-14.397l-15.07,-27.699Z" style="fill:#162e67;"/><path d="M180.416,191.589c17.451,-6.385 30.79,-0.436 41.533,13.302l-15.07,-27.699l-26.463,14.397Z" style="fill:#8b97b3;"/></g><g><path d="M237.845,160.265l-26.463,14.397l15.069,27.699l26.464,-14.397l-15.07,-27.699Z" style="fill:#162e67;"/><path d="M211.382,174.662c17.45,-6.385 30.789,-0.436 41.533,13.302l-15.07,-27.699l-26.463,14.397Z" style="fill:#8b97b3;"/></g><g><path d="M268.151,143.148l-26.463,14.397l15.07,27.699l26.463,-14.398l-15.07,-27.698Z" style="fill:#162e67;"/><path d="M241.688,157.545c17.451,-6.385 30.79,-0.436 41.533,13.301l-15.07,-27.698l-26.463,14.397Z" style="fill:#8b97b3;"/></g><g><path d="M198.299,229.502l-26.463,14.397l15.07,27.699l26.463,-14.397l-15.07,-27.699Z" style="fill:#162e67;"/><path d="M171.836,243.899c17.451,-6.385 30.79,-0.435 41.533,13.302l-15.07,-27.699l-26.463,14.397Z" style="fill:#8b97b3;"/></g><g><path d="M229.337,211.236l-26.464,14.398l15.07,27.698l26.463,-14.397l-15.069,-27.699Z" style="fill:#162e67;"/><path d="M202.873,225.634c17.451,-6.386 30.79,-0.436 41.533,13.301l-15.069,-27.699l-26.464,14.398Z" style="fill:#8b97b3;"/></g><g><path d="M260.302,194.309l-26.463,14.398l15.07,27.698l26.463,-14.397l-15.07,-27.699Z" style="fill:#162e67;"/><path d="M233.839,208.707c17.451,-6.386 30.79,-0.436 41.533,13.301l-15.07,-27.699l-26.463,14.398Z" style="fill:#8b97b3;"/></g><g><path d="M290.609,177.192l-26.464,14.397l15.07,27.699l26.463,-14.397l-15.069,-27.699Z" style="fill:#162e67;"/><path d="M264.145,191.589c17.451,-6.385 30.79,-0.436 41.533,13.302l-15.069,-27.699l-26.464,14.397Z" style="fill:#8b97b3;"/></g><g><path d="M306.094,124.044l-26.463,14.397l15.069,27.699l26.463,-14.397l-15.069,-27.699Z" style="fill:#162e67;"/><path d="M279.631,138.441c17.45,-6.385 30.789,-0.436 41.532,13.302l-15.069,-27.699l-26.463,14.397Z" style="fill:#8b97b3;"/></g><g><path d="M337.131,105.778l-26.463,14.397l15.069,27.699l26.464,-14.397l-15.07,-27.699Z" style="fill:#162e67;"/><path d="M310.668,120.175c17.45,-6.385 30.789,-0.435 41.533,13.302l-15.07,-27.699l-26.463,14.397Z" style="fill:#8b97b3;"/></g><g><path d="M368.097,88.851l-26.463,14.397l15.069,27.699l26.463,-14.397l-15.069,-27.699Z" style="fill:#162e67;"/><path d="M341.634,103.248c17.45,-6.385 30.789,-0.435 41.532,13.302l-15.069,-27.699l-26.463,14.397Z" style="fill:#8b97b3;"/></g><g><path d="M398.403,71.734l-26.463,14.397l15.069,27.699l26.464,-14.398l-15.07,-27.698Z" style="fill:#162e67;"/><path d="M371.94,86.131c17.45,-6.385 30.79,-0.436 41.533,13.301l-15.07,-27.698l-26.463,14.397Z" style="fill:#8b97b3;"/></g><g><path d="M328.551,158.088l-26.463,14.398l15.069,27.698l26.464,-14.397l-15.07,-27.699Z" style="fill:#162e67;"/><path d="M302.088,172.486c17.451,-6.386 30.79,-0.436 41.533,13.301l-15.07,-27.699l-26.463,14.398Z" style="fill:#8b97b3;"/></g><g><path d="M359.588,139.822l-26.463,14.398l15.07,27.698l26.463,-14.397l-15.07,-27.699Z" style="fill:#162e67;"/><path d="M333.125,154.22c17.451,-6.385 30.79,-0.436 41.533,13.301l-15.07,-27.699l-26.463,14.398Z" style="fill:#8b97b3;"/></g><g><path d="M390.554,122.895l-26.463,14.398l15.069,27.698l26.463,-14.397l-15.069,-27.699Z" style="fill:#162e67;"/><path d="M364.091,137.293c17.45,-6.386 30.789,-0.436 41.532,13.301l-15.069,-27.699l-26.463,14.398Z" style="fill:#8b97b3;"/></g><g><path d="M420.86,105.778l-26.463,14.397l15.07,27.699l26.463,-14.397l-15.07,-27.699Z" style="fill:#162e67;"/><path d="M394.397,120.175c17.451,-6.385 30.79,-0.435 41.533,13.302l-15.07,-27.699l-26.463,14.397Z" style="fill:#8b97b3;"/></g><g><path d="M350.11,200.658l-26.463,14.398l15.069,27.698l26.464,-14.397l-15.07,-27.699Z" style="fill:#162e67;"/><path d="M323.647,215.056c17.45,-6.385 30.79,-0.436 41.533,13.301l-15.07,-27.699l-26.463,14.398Z" style="fill:#8b97b3;"/></g><g><path d="M381.147,182.393l-26.463,14.397l15.069,27.699l26.464,-14.398l-15.07,-27.698Z" style="fill:#162e67;"/><path d="M354.684,196.79c17.451,-6.385 30.79,-0.436 41.533,13.301l-15.07,-27.698l-26.463,14.397Z" style="fill:#8b97b3;"/></g><g><path d="M412.113,165.465l-26.463,14.398l15.069,27.698l26.463,-14.397l-15.069,-27.699Z" style="fill:#162e67;"/><path d="M385.65,179.863c17.45,-6.385 30.789,-0.436 41.532,13.301l-15.069,-27.699l-26.463,14.398Z" style="fill:#8b97b3;"/></g><g><path d="M442.419,148.348l-26.463,14.398l15.07,27.698l26.463,-14.397l-15.07,-27.699Z" style="fill:#162e67;"/><path d="M415.956,162.746c17.451,-6.386 30.79,-0.436 41.533,13.301l-15.07,-27.699l-26.463,14.398Z" style="fill:#8b97b3;"/></g><g><path d="M372.567,234.703l-26.463,14.397l15.07,27.699l26.463,-14.398l-15.07,-27.698Z" style="fill:#162e67;"/><path d="M346.104,249.1c17.451,-6.385 30.79,-0.436 41.533,13.301l-15.07,-27.698l-26.463,14.397Z" style="fill:#8b97b3;"/></g><g><path d="M403.604,216.437l-26.463,14.397l15.07,27.699l26.463,-14.398l-15.07,-27.698Z" style="fill:#162e67;"/><path d="M377.141,230.834c17.451,-6.385 30.79,-0.436 41.533,13.301l-15.07,-27.698l-26.463,14.397Z" style="fill:#8b97b3;"/></g><g><path d="M434.57,199.51l-26.463,14.397l15.069,27.699l26.464,-14.398l-15.07,-27.698Z" style="fill:#162e67;"/><path d="M408.107,213.907c17.45,-6.385 30.79,-0.436 41.533,13.301l-15.07,-27.698l-26.463,14.397Z" style="fill:#8b97b3;"/></g><g><path d="M464.877,182.393l-26.464,14.397l15.07,27.699l26.463,-14.398l-15.069,-27.698Z" style="fill:#162e67;"/><path d="M438.413,196.79c17.451,-6.385 30.79,-0.436 41.533,13.301l-15.069,-27.698l-26.464,14.397Z" style="fill:#8b97b3;"/></g></g></svg>