<?xml version="1.0" encoding="UTF-8" standalone="no"?>
<!DOCTYPE svg PUBLIC "-//W3C//DTD SVG 1.1//EN" "http://www.w3.org/Graphics/SVG/1.1/DTD/svg11.dtd">
<svg width="100%" height="100%" viewBox="0 0 1024 1024" version="1.1" xmlns="http://www.w3.org/2000/svg" xmlns:xlink="http://www.w3.org/1999/xlink" xml:space="preserve" xmlns:serif="http://www.serif.com/" style="fill-rule:evenodd;clip-rule:evenodd;stroke-linejoin:round;stroke-miterlimit:2;">
    <g transform="matrix(1.01794,0,0,1,-7.7613,0)">
        <path d="M432.627,282.612L469.832,171.833L505.396,142.279L505.396,282.612L432.627,282.612Z" style="fill:rgb(212,213,215);"/>
    </g>
    <g transform="matrix(-1.01794,0,0,1,1021.17,0)">
        <path d="M428.938,282.878L469.06,171.833L505.396,142.279L505.396,282.878L428.938,282.878Z" style="fill:rgb(145,150,156);"/>
    </g>
    <path d="M329.013,471.093L336.784,490.62C349.639,504.664 361.79,508.152 373.275,501.912L366.75,490.62C353.544,485.992 340.938,479.563 329.013,471.093Z" style="fill:rgb(74,93,91);"/>
    <g transform="matrix(-1,0,0,1,1011.88,0)">
        <path d="M330.022,471.093L336.784,490.62C350.002,503.248 362.853,507.808 373.275,501.912L366.75,490.62C353.544,485.992 341.947,479.563 330.022,471.093Z" style="fill:rgb(74,93,91);"/>
    </g>
    <path d="M213.476,282.612L796.738,282.612L796.738,391.171L715.216,391.171L669.07,419.93C642.46,506.897 617.352,581.849 588.787,646.343C589.422,658.244 576.719,670.95 558.248,673.824L548.109,732.615L529.78,751.415L479.161,751.415L462.085,732.864L452.899,673.824C434.006,674.755 416.293,668.945 424.828,650.462C396.83,574.26 368.803,498.117 341.797,419.93L295.651,391.171L214.129,391.171L213.476,282.612Z" style="fill:rgb(142,147,151);"/>
    <path d="M214.129,523.951L214.129,198.352C204.781,182.985 195.193,182.985 185.365,198.352C168.448,252.588 147.361,305.193 145.357,329.228L145.357,474.754C146.993,489.881 156.392,496 189.147,534.452C202.432,540.65 208.648,535.762 214.129,523.951Z" style="fill:rgb(76,86,88);"/>
    <g transform="matrix(-1,0,0,1,1010.87,0.670458)">
        <path d="M214.129,523.951L214.129,198.352C204.781,182.985 195.193,182.985 185.365,198.352C168.448,252.588 147.361,305.193 145.357,329.228L145.357,474.754C146.993,489.881 156.392,496 189.147,534.452C202.432,540.65 208.648,535.762 214.129,523.951Z" style="fill:rgb(76,86,88);"/>
    </g>
    <g transform="matrix(1,0,0,1,-0.92828,-0.844136)">
        <path d="M797.666,392.015L716.144,392.015L669.998,420.775L647.75,491.464C657.465,487.533 674.117,480.466 682.477,472.204C686.118,468.606 697.086,474.471 698.871,472.204L720.361,444.911L797.666,444.911L797.666,392.015Z" style="fill:rgb(6,16,15);fill-opacity:0.59;"/>
    </g>
    <g transform="matrix(-1,0,0,1,1011.8,-0.844136)">
        <path d="M797.666,392.015L716.144,392.015L669.998,420.775L645.045,491.464C647.406,491.707 672.381,481.451 682.477,472.204C686.252,468.747 697.086,474.471 698.871,472.204L720.361,444.911L797.666,444.911L797.666,392.015Z" style="fill:rgb(6,16,15);fill-opacity:0.59;"/>
    </g>
    <g transform="matrix(-1.17356,0.000323194,-0.000279213,-1.01386,1148.83,968.703)">
        <path d="M631.213,560.717L594.808,606.28L500.849,606.251L465.074,560.666L491.001,401.583L600.168,401.618L631.213,560.717Z" style="fill:rgb(74,93,91);"/>
    </g>
    <path d="M214.129,464.409L214.129,444.066L293.469,444.066L313.612,471.79L214.129,464.409" style="fill:rgb(51,61,63);"/>
    <g transform="matrix(-1,0,0,1,1011.01,0)">
        <path d="M214.129,464.409L214.129,444.066L293.469,444.066L313.77,471.79L214.129,464.409" style="fill:rgb(51,61,63);"/>
    </g>
    <g transform="matrix(-1,0.000275396,-0.000275396,-1,1054.74,967.084)">
        <path d="M632.711,565.138L605.899,598.12L497.854,598.09L465.673,565.092L488.6,416.203L601.963,416.234L632.711,565.138Z" style="fill:rgb(75,154,172);"/>
    </g>
    <g transform="matrix(1.09655,0,0,1.12673,-27.7708,-44.0477)">
        <path d="M309.485,278.219C309.485,271.37 303.772,265.81 296.735,265.81L271.235,265.81C264.199,265.81 258.485,271.37 258.485,278.219L258.485,342.212C258.485,349.06 264.199,354.62 271.235,354.62L296.735,354.62C303.772,354.62 309.485,349.06 309.485,342.212L309.485,278.219Z" style="fill:rgb(6,16,15);fill-opacity:0.8;"/>
    </g>
    <g transform="matrix(1.09655,0,0,1.12673,414.5,-44.0477)">
        <path d="M309.485,278.219C309.485,271.37 303.772,265.81 296.735,265.81L271.235,265.81C264.199,265.81 258.485,271.37 258.485,278.219L258.485,342.212C258.485,349.06 264.199,354.62 271.235,354.62L296.735,354.62C303.772,354.62 309.485,349.06 309.485,342.212L309.485,278.219Z" style="fill:rgb(6,16,15);fill-opacity:0.8;"/>
    </g>
    <path d="M411.731,751.415C449.16,799.227 481.099,847.04 505.397,894.852C526.809,846.08 555.248,798.311 589.791,751.415L568.907,751.415L674.974,490.62C662.271,500.104 651.448,504.006 645.498,503.559C643.822,503.433 643.751,504.466 642.646,503.344L587.45,649.934C579.143,663.261 571.219,671.724 558.59,673.525L547.712,732.864C541.991,740.982 534.001,747.048 529.78,751.415L479.161,751.415L462.085,732.864L452.852,673.525C444.019,673.006 435.665,668.165 427.792,659.002C410.507,606.854 390.409,554.705 370.918,502.557C357.5,506.316 347.95,500.37 336.784,490.62L400.973,659.002L438.564,751.415L411.731,751.415Z" style="fill:rgb(76,86,88);"/>
    <path d="M432.278,197.511L471.121,171.833L412.152,341.533C406.402,359.623 405.496,380.889 407.91,400.419L444.387,561.714L429.216,566.081L391.6,397.798C388.855,380.873 388.582,362.3 391.6,341.533L432.278,197.511Z" style="fill:rgb(116,123,129);"/>
    <g transform="matrix(-1,0,0,1,1014.81,0)">
        <path d="M432.278,197.511L471.121,171.833L412.152,341.533C406.402,359.623 409.738,382.08 412.152,401.61L442.31,561.713L431.107,566.081L391.6,397.798C388.855,380.873 388.582,362.3 391.6,341.533L432.278,197.511Z" style="fill:rgb(116,123,129);"/>
    </g>
    <path d="M428.24,561.714L505.396,561.714L504.726,751.415L479.161,751.415L462.085,732.864L428.24,561.714Z" style="fill:rgb(215,216,218);"/>
    <g transform="matrix(-1,0,0,1,1009.54,0)">
        <path d="M425.013,561.714L504.726,561.714L504.726,751.415L479.161,751.415C472.961,745.994 466.75,740.209 461.832,732.864L425.013,561.714Z" style="fill:rgb(145,150,156);"/>
    </g>
    <path d="M313.612,471.79L411.731,751.415L438.564,751.415C402.214,658.062 366.526,565.04 328.988,471.093C326.113,468.953 318.921,471.093 313.612,471.79Z" style="fill:rgb(142,147,151);"/>
    <path d="M568.907,751.415L589.791,751.415L697.241,471.79C692.485,471.213 687.193,469.579 683.726,470.3C682.793,470.495 682.355,470.744 681.854,471.093L568.907,751.415Z" style="fill:rgb(142,147,151);"/>
    <g transform="matrix(0.595868,0,0,0.764326,185.526,91.5496)">
        <path d="M497.49,405.89C492.078,395.284 472.106,376.663 462.466,398.875C461.192,401.812 458.852,406.404 459.09,410.401C459.804,422.437 466.754,471.093 466.754,471.093C472.171,495.284 492.353,492.043 495.976,464.55C495.976,464.55 503.075,416.836 497.49,405.89Z" style="fill:rgb(200,242,241);"/>
    </g>
    <g id="noun-recycle-148557" transform="matrix(0.0848065,0,0,0.0848065,283.634,325.832)">
        <g transform="matrix(1,0,0,1,-350,-350)">
            <g>
                <path d="M581.28,342.16L543.202,276.64C535.362,263.199 518.003,258.718 504.561,266.562C491.12,274.402 486.639,291.761 494.483,305.203L532.561,370.723C539.28,382.485 534.799,392.563 532.561,396.485C530.323,400.407 523.6,409.364 510.163,409.364L421.679,409.36L440.159,390.88C451.358,379.681 451.358,361.759 440.159,351.118C428.96,339.919 411.038,339.919 400.397,351.118L333.198,417.2C327.596,422.239 324.8,429.52 324.8,437.36C324.8,445.2 327.6,451.919 333.198,457.52L400.397,523.602C405.999,529.204 413.276,532 419.999,532C427.28,532 434.558,529.2 440.159,523.602C451.358,512.403 450.8,494.481 440.159,483.84L421.679,465.36L510.159,465.36C539.839,465.36 566.718,450.239 581.28,424.481C595.839,398.719 596.397,367.922 581.28,342.161L581.28,342.16Z" style="fill:white;fill-rule:nonzero;"/>
                <path d="M271.04,408.8L195.442,408.8C182.001,408.8 175.282,399.839 173.044,395.921C170.806,391.999 166.325,381.921 173.044,370.159L216.724,293.999L222.884,318.64C226.244,331.519 237.443,339.921 250.325,339.921C252.564,339.921 254.806,339.362 257.044,338.8C272.165,334.878 281.122,319.761 277.763,304.64L254.802,212.8C253.122,205.519 248.083,199.359 241.923,195.441C235.204,191.519 227.923,190.402 220.083,192.64L128.243,216.718C113.122,220.64 104.165,236.32 108.083,251.437C112.005,266.558 127.685,275.515 142.802,271.597L169.122,264.878L124.321,342.718C109.2,367.921 109.2,398.159 124.321,423.921C139.442,449.683 165.762,464.8 195.442,464.8L271.044,464.8C286.724,464.8 299.044,451.921 299.044,436.8C299.04,421.679 286.72,408.8 271.04,408.8L271.04,408.8Z" style="fill:white;fill-rule:nonzero;"/>
                <path d="M253.68,174.16C267.121,182 284.481,177.519 292.321,164.082L330.962,97.441C337.681,85.679 348.884,84.562 353.36,84.562C357.841,84.562 369.04,85.683 375.758,97.441L421.117,175.839L394.238,169.12C379.117,165.198 364,174.159 360.078,189.28C356.156,204.401 365.117,219.518 380.238,223.44L472.078,246.96C474.316,247.519 476.559,248.081 478.797,248.081C483.836,248.081 488.875,246.96 493.356,244.159C500.075,240.238 504.555,234.081 506.235,226.8L528.633,134.402C532.555,119.281 523.031,104.164 507.914,100.242C492.793,96.321 477.676,105.844 473.754,120.961L468.152,144.481L424.472,69.442C409.359,43.122 382.48,28.001 352.8,28.001C323.12,28.001 296.241,43.122 281.679,68.88L243.038,135.521C235.198,149.521 239.679,166.88 253.679,174.162L253.68,174.16Z" style="fill:white;fill-rule:nonzero;"/>
            </g>
        </g>
    </g>
    <g id="noun-recycle-1485571" serif:id="noun-recycle-148557" transform="matrix(0.0848065,0,0,0.0848065,725.905,325.832)">
        <g transform="matrix(1,0,0,1,-350,-350)">
            <g>
                <path d="M581.28,342.16L543.202,276.64C535.362,263.199 518.003,258.718 504.561,266.562C491.12,274.402 486.639,291.761 494.483,305.203L532.561,370.723C539.28,382.485 534.799,392.563 532.561,396.485C530.323,400.407 523.6,409.364 510.163,409.364L421.679,409.36L440.159,390.88C451.358,379.681 451.358,361.759 440.159,351.118C428.96,339.919 411.038,339.919 400.397,351.118L333.198,417.2C327.596,422.239 324.8,429.52 324.8,437.36C324.8,445.2 327.6,451.919 333.198,457.52L400.397,523.602C405.999,529.204 413.276,532 419.999,532C427.28,532 434.558,529.2 440.159,523.602C451.358,512.403 450.8,494.481 440.159,483.84L421.679,465.36L510.159,465.36C539.839,465.36 566.718,450.239 581.28,424.481C595.839,398.719 596.397,367.922 581.28,342.161L581.28,342.16Z" style="fill:white;fill-rule:nonzero;"/>
                <path d="M271.04,408.8L195.442,408.8C182.001,408.8 175.282,399.839 173.044,395.921C170.806,391.999 166.325,381.921 173.044,370.159L216.724,293.999L222.884,318.64C226.244,331.519 237.443,339.921 250.325,339.921C252.564,339.921 254.806,339.362 257.044,338.8C272.165,334.878 281.122,319.761 277.763,304.64L254.802,212.8C253.122,205.519 248.083,199.359 241.923,195.441C235.204,191.519 227.923,190.402 220.083,192.64L128.243,216.718C113.122,220.64 104.165,236.32 108.083,251.437C112.005,266.558 127.685,275.515 142.802,271.597L169.122,264.878L124.321,342.718C109.2,367.921 109.2,398.159 124.321,423.921C139.442,449.683 165.762,464.8 195.442,464.8L271.044,464.8C286.724,464.8 299.044,451.921 299.044,436.8C299.04,421.679 286.72,408.8 271.04,408.8L271.04,408.8Z" style="fill:white;fill-rule:nonzero;"/>
                <path d="M253.68,174.16C267.121,182 284.481,177.519 292.321,164.082L330.962,97.441C337.681,85.679 348.884,84.562 353.36,84.562C357.841,84.562 369.04,85.683 375.758,97.441L421.117,175.839L394.238,169.12C379.117,165.198 364,174.159 360.078,189.28C356.156,204.401 365.117,219.518 380.238,223.44L472.078,246.96C474.316,247.519 476.559,248.081 478.797,248.081C483.836,248.081 488.875,246.96 493.356,244.159C500.075,240.238 504.555,234.081 506.235,226.8L528.633,134.402C532.555,119.281 523.031,104.164 507.914,100.242C492.793,96.321 477.676,105.844 473.754,120.961L468.152,144.481L424.472,69.442C409.359,43.122 382.48,28.001 352.8,28.001C323.12,28.001 296.241,43.122 281.679,68.88L243.038,135.521C235.198,149.521 239.679,166.88 253.679,174.162L253.68,174.16Z" style="fill:white;fill-rule:nonzero;"/>
            </g>
        </g>
    </g>
</svg>
