<?xml version="1.0" encoding="UTF-8" standalone="no"?>
<!DOCTYPE svg PUBLIC "-//W3C//DTD SVG 1.1//EN" "http://www.w3.org/Graphics/SVG/1.1/DTD/svg11.dtd">
<svg width="100%" height="100%" viewBox="0 0 1024 1024" version="1.1" xmlns="http://www.w3.org/2000/svg" xmlns:xlink="http://www.w3.org/1999/xlink" xml:space="preserve" xmlns:serif="http://www.serif.com/" style="fill-rule:evenodd;clip-rule:evenodd;stroke-linejoin:round;stroke-miterlimit:2;">
    <path d="M634.619,727.316L435.783,727.316L462.894,783.386L602.989,783.386L634.619,727.316Z" style="fill:rgb(0,100,126);"/>
    <path d="M713.358,490.379L840.062,601.507L840.062,540.923L713.358,490.379Z" style="fill:rgb(55,108,140);"/>
    <path d="M840.062,329.685L840.062,601.507L873.735,642.718L885.166,642.718C896.037,589.92 900.051,531.458 900.114,470.374L888.318,451.082L900.114,427.727L920.338,460.701L920.338,443.555C893.579,405.598 866.821,367.641 840.062,329.685Z" style="fill:rgb(0,160,170);"/>
    <g transform="matrix(-1,0,0,1,1066.54,0)">
        <path d="M888.318,451.082L900.114,427.727L920.338,460.701C921.757,523.05 919.173,584.212 907.622,642.718L885.166,642.718C895.885,587.356 899.961,529.578 900.114,470.374L888.318,451.082Z" style="fill:rgb(0,53,72);"/>
    </g>
    <g transform="matrix(-1,0,0,1,1066.54,5.02027)">
        <path d="M703.686,413.958L712.213,485.359L840.062,540.923L840.062,478.411L703.686,413.958Z" style="fill:rgb(0,43,52);"/>
    </g>
    <g transform="matrix(-1,0,0,1,1069.35,0.188832)">
        <path d="M701.415,656.798L842.875,601.318L714.95,489.118C719.088,545.922 715.098,601.87 701.415,656.798Z" style="fill:rgb(72,154,201);"/>
    </g>
    <g transform="matrix(-1,0,0,1,1066.54,5.68434e-14)">
        <path d="M713.358,490.379L840.062,601.507L840.062,540.923L713.358,490.379Z" style="fill:rgb(55,108,140);"/>
    </g>
    <g transform="matrix(-1,0,0,1,1066.54,5.68434e-14)">
        <path d="M840.062,329.685L840.062,601.507L873.735,642.718L885.166,642.718C896.037,589.92 900.051,531.458 900.114,470.374L888.318,451.082L900.114,427.727L920.338,460.701L920.338,443.555C893.579,405.598 866.821,367.641 840.062,329.685Z" style="fill:rgb(0,160,170);"/>
    </g>
    <path d="M888.318,451.082L900.114,427.727L920.338,460.701C921.757,523.05 919.173,584.212 907.622,642.718L885.166,642.718C895.885,587.356 899.961,529.578 900.114,470.374L888.318,451.082Z" style="fill:rgb(0,53,72);"/>
    <g transform="matrix(1,0,0,1,0,5.02027)">
        <path d="M703.686,413.958L712.213,485.359L840.062,540.923L840.062,478.411L703.686,413.958Z" style="fill:rgb(0,43,52);"/>
    </g>
    <g transform="matrix(1,0,0,1,-2.8138,0.188832)">
        <path d="M701.415,656.798L842.875,601.318L714.95,489.118C719.088,545.922 715.098,601.87 701.415,656.798Z" style="fill:rgb(72,154,201);"/>
    </g>
    <g transform="matrix(1,0,0,1,-1.40684,0)">
        <path d="M661.477,727.316L682.787,727.316C717.017,629.078 726.201,526.595 705.093,418.978L700.84,418.978C709.249,524.098 696.212,626.886 661.477,727.316Z" style="fill:rgb(0,57,69);"/>
    </g>
    <g transform="matrix(-1,0,0,1,1067.97,0)">
        <path d="M661.477,727.316L682.787,727.316C717.017,629.078 726.201,526.595 705.093,418.978L700.84,418.978C709.249,524.098 696.212,626.886 661.477,727.316Z" style="fill:rgb(0,57,69);"/>
    </g>
    <g transform="matrix(1.74398,0,0,1.02637,-363.937,-22.8436)">
        <rect x="489.84" y="852.76" width="22.16" height="75.133" style="fill:rgb(196,160,126);"/>
    </g>
    <g transform="matrix(1.74398,0,0,1.02637,-311.713,-22.8436)">
        <rect x="489.84" y="852.76" width="22.16" height="75.133" style="fill:rgb(196,160,126);"/>
    </g>
    <g transform="matrix(-0.953642,0.000179741,-0.000188479,-1,1056.63,1582.7)">
        <path d="M701.372,835.17L391.85,835.114L391.862,775.497L427.235,730.017L661.668,730.059L701.384,775.553L701.372,835.17Z" style="fill:rgb(176,223,241);"/>
    </g>
    <g transform="matrix(1.74409,0,0,1,-395.025,0.858686)">
        <path d="M531.922,93.761C601.624,200.205 639.835,377.27 629.593,547.464C619.846,617.22 612.761,678.685 594.221,726.457L471.044,726.457C449.757,670.681 445.124,610.568 435.561,547.464C424.759,386.094 461.209,199.987 531.922,93.761Z" style="fill:rgb(176,223,241);"/>
    </g>
    <g transform="matrix(1,0,0,1,-0.941665,0.858686)">
        <path d="M532.666,93.761C613.348,242.763 644.169,394.066 629.593,547.464C619.846,617.22 606.784,678.685 588.244,726.457L480.758,726.457C459.47,670.681 445.124,610.568 435.561,547.464C425.173,392.606 456.589,241.291 532.666,93.761Z" style="fill:rgb(4,76,90);"/>
    </g>
    <g transform="matrix(1.47991,0,0,1,-255.699,0.858686)">
        <path d="M532.666,93.761C607.442,248.377 639.536,383.499 632.115,530.114C636.649,506.432 649.109,513.75 649.214,522.171C649.599,553.158 638.917,632.892 619.752,726.457L446.442,726.457C435.309,697.287 415.655,553.522 416.964,522.171C418.159,493.577 438.453,541.242 433.891,511.141C431.205,359.79 461.779,243.655 532.666,93.761Z" style="fill:rgb(2,80,103);"/>
    </g>
    <g transform="matrix(1.47991,0,0,1,-254.12,0.858686)">
        <path d="M532.666,93.761C607.34,245.938 637.563,397.557 629.593,547.464C619.846,617.22 612.761,678.685 594.221,726.457L471.044,726.457C449.757,670.681 445.124,610.568 435.561,547.464C425.173,392.606 456.589,241.291 532.666,93.761Z" style="fill:rgb(2,95,128);"/>
    </g>
    <g>
        <path d="M494.06,757.428C473.586,678.413 460.046,596.877 455.693,512L609.139,512C601.807,598.895 590.192,680.792 574.068,757.428L494.06,757.428Z" style="fill:rgb(199,249,238);"/>
        <g transform="matrix(-0.999978,0.00670248,-0.00670248,-0.999978,1122.07,999.488)">
            <path d="M652.797,447.758C647.072,426.138 619.044,323.358 583.553,423.127C572.429,454.4 522.436,395.913 515.132,436.607C510.308,463.483 502.566,577.836 507.79,630.923C512.165,675.381 529.353,709.164 581.6,714.594C585.602,715.01 579.35,714.577 583.397,714.703C648.041,716.712 665.302,660.453 664.751,602.107C663.738,494.892 664.051,440.863 652.797,447.758Z" style="fill:rgb(199,249,238);"/>
        </g>
    </g>
    <g transform="matrix(1,0,0,1,-15.6497,-6.86965)">
        <circle cx="549.547" cy="504.1" r="50.234" style="fill:rgb(96,181,188);"/>
    </g>
    <g transform="matrix(0.209401,0,0,0.209401,397.998,364.837)">
        <circle cx="549.547" cy="504.1" r="50.234" style="fill:rgb(253,255,254);"/>
    </g>
    <g id="noun-recycle-1547060" transform="matrix(0.166706,0,0,0.166706,535.201,817.266)">
        <g transform="matrix(1,0,0,1,-350,-350)">
            <g>
                <path d="M598.64,115.36L401.52,115.36L401.52,176.962L537.04,176.962L537.04,382.482L459.763,382.482L488.322,353.923L444.642,310.243L341.602,413.283L444.642,516.323L488.322,472.643L459.763,444.084L598.643,444.084L598.64,115.36ZM162.96,177.52L240.241,177.52L211.682,206.079L255.362,249.759L358.402,146.719L255.362,43.119L211.682,86.799L240.241,115.358L101.361,115.358L101.361,444.638L298.481,444.638L298.481,383.036L162.961,383.036L162.96,177.52Z" style="fill:rgb(0,53,72);fill-rule:nonzero;"/>
            </g>
        </g>
    </g>
</svg>
